<?xml version="1.0" encoding="UTF-8" standalone="no"?>
<!DOCTYPE svg PUBLIC "-//W3C//DTD SVG 1.1//EN" "http://www.w3.org/Graphics/SVG/1.1/DTD/svg11.dtd">
<svg width="100%" height="100%" viewBox="0 0 17 17" version="1.1" xmlns="http://www.w3.org/2000/svg" xmlns:xlink="http://www.w3.org/1999/xlink" xml:space="preserve" style="fill-rule:evenodd;clip-rule:evenodd;stroke-linejoin:round;stroke-miterlimit:1.41421;">
    <g transform="matrix(1,0,0,1,-11.5,-11.5)">
        <path d="M20,28.5C15.3,28.5 11.5,24.7 11.5,20C11.5,15.3 15.3,11.5 20,11.5C24.7,11.5 28.5,15.3 28.5,20C28.5,24.7 24.7,28.5 20,28.5ZM20,12.5C15.9,12.5 12.5,15.9 12.5,20C12.5,24.1 15.9,27.5 20,27.5C24.1,27.5 27.5,24.1 27.5,20C27.5,15.9 24.1,12.5 20,12.5Z" style="fill:white;fill-rule:nonzero;"/>
        <g>
            <path d="M22.5,20.5L17.5,20.5C17.2,20.5 17,20.3 17,20C17,19.7 17.2,19.5 17.5,19.5L22.5,19.5C22.8,19.5 23,19.7 23,20C23,20.3 22.8,20.5 22.5,20.5Z" style="fill:white;fill-rule:nonzero;"/>
            <path d="M20,23C19.7,23 19.5,22.8 19.5,22.5L19.5,17.5C19.5,17.2 19.7,17 20,17C20.3,17 20.5,17.2 20.5,17.5L20.5,22.5C20.5,22.8 20.3,23 20,23Z" style="fill:white;fill-rule:nonzero;"/>
        </g>
    </g>
</svg>
