<?xml version="1.0" encoding="UTF-8" standalone="no"?>
<!DOCTYPE svg PUBLIC "-//W3C//DTD SVG 1.1//EN" "http://www.w3.org/Graphics/SVG/1.1/DTD/svg11.dtd">
<svg width="100%" height="100%" viewBox="0 0 17 17" version="1.1" xmlns="http://www.w3.org/2000/svg" xmlns:xlink="http://www.w3.org/1999/xlink" xml:space="preserve" style="fill-rule:evenodd;clip-rule:evenodd;stroke-linejoin:round;stroke-miterlimit:1.41421;">
    <g transform="matrix(1,0,0,1,-11.5,-11.5)">
        <path d="M20,28.5C15.3,28.5 11.5,24.7 11.5,20C11.5,15.3 15.3,11.5 20,11.5C24.7,11.5 28.5,15.3 28.5,20C28.5,24.7 24.7,28.5 20,28.5ZM20,12.5C15.9,12.5 12.5,15.9 12.5,20C12.5,24.1 15.9,27.5 20,27.5C24.1,27.5 27.5,24.1 27.5,20C27.5,15.9 24.1,12.5 20,12.5Z" style="fill:white;fill-rule:nonzero;"/>
        <path d="M19.2,22.5C18.8,22.5 18.5,22.4 18.3,22.1L17.2,21C17,20.8 17,20.5 17.2,20.3C17.4,20.1 17.7,20.1 17.9,20.3L19,21.4C19.1,21.5 19.1,21.5 19.2,21.5C19.3,21.5 19.4,21.5 19.4,21.4L22.1,18.7C22.3,18.5 22.6,18.5 22.8,18.7C23,18.9 23,19.2 22.8,19.4L20.1,22.1C19.9,22.3 19.6,22.5 19.2,22.5L19.2,22.5Z" style="fill:white;fill-rule:nonzero;"/>
    </g>
</svg>
